<svg width="20" height="20" viewBox="0 0 20 20" fill="none" xmlns="http://www.w3.org/2000/svg">
<path d="M10 1.66667C5.41669 1.66667 1.66669 5.41667 1.66669 10C1.66669 14.5833 5.41669 18.3333 10 18.3333C14.5834 18.3333 18.3334 14.5833 18.3334 10C18.3334 5.41667 14.5834 1.66667 10 1.66667ZM13.5 8.58333L9.50002 12.5833C9.16669 12.9167 8.66669 12.9167 8.33335 12.5833L6.50002 10.75C6.16669 10.4167 6.16669 9.91667 6.50002 9.58333C6.83335 9.25 7.33335 9.25 7.66669 9.58333L8.91669 10.8333L12.3334 7.41667C12.6667 7.08333 13.1667 7.08333 13.5 7.41667C13.8334 7.75 13.8334 8.25 13.5 8.58333Z" fill="#ffba43"/>
</svg>
